<svg viewBox="0 0 1400 900" xmlns="http://www.w3.org/2000/svg">
  <defs>
    <style>
      .box-label { font-family: Arial, sans-serif; font-size: 14px; font-weight: bold; fill: white; }
      .box-sublabel { font-family: Arial, sans-serif; font-size: 11px; fill: white; }
      .section-title { font-family: Arial, sans-serif; font-size: 13px; font-weight: 600; fill: #666; text-transform: uppercase; letter-spacing: 1px; }
      .arrow { fill: none; stroke: #7C8DB5; stroke-width: 2; }
      .arrow-marker { fill: #7C8DB5; }
    </style>
    <marker id="arrowhead-onprem" markerWidth="10" markerHeight="10" refX="9" refY="3" orient="auto">
      <polygon points="0 0, 10 3, 0 6" class="arrow-marker" />
    </marker>
  </defs>

  <text x="700" y="40" class="section-title" text-anchor="middle">ALL HOSTED ON YOUR INFRASTRUCTURE</text>

  <rect x="100" y="80" width="1200" height="720" rx="12" fill="none" stroke="#9999ff" stroke-width="3" stroke-dasharray="8,4" opacity="0.5"/>
  <text x="130" y="115" class="section-title" font-size="15px" font-weight="bold">YOUR ON-PREMISE INFRASTRUCTURE</text>

  <ellipse cx="350" cy="250" rx="120" ry="30" fill="#7B8FFF" stroke="#5A6FEF" stroke-width="2"/>
  <rect x="230" y="250" width="240" height="80" fill="#7B8FFF"/>
  <ellipse cx="350" cy="330" rx="120" ry="30" fill="#6B7FFF" stroke="#5A6FEF" stroke-width="2"/>
  <line x1="230" y1="250" x2="230" y2="330" stroke="#5A6FEF" stroke-width="2"/>
  <line x1="470" y1="250" x2="470" y2="330" stroke="#5A6FEF" stroke-width="2"/>
  
  <text x="350" y="285" class="box-label" text-anchor="middle">YOUR DATABASE</text>
  <text x="350" y="305" class="box-sublabel" text-anchor="middle">SQL OR NOSQL</text>

  <rect x="230" y="400" width="240" height="100" rx="8" fill="#8B9FFF" stroke="#6B7FEF" stroke-width="2"/>
  <text x="350" y="445" class="box-label" text-anchor="middle">YOUR AGENT</text>
  <text x="350" y="465" class="box-sublabel" text-anchor="middle">NODE.JS OR RUBY</text>

  <rect x="700" y="250" width="280" height="90" rx="8" fill="#A8B8FF" stroke="#7B8FFF" stroke-width="2"/>
  <text x="840" y="290" class="box-label" text-anchor="middle">FOREST ADMIN BACKEND</text>
  <text x="840" y="310" class="box-sublabel" text-anchor="middle">On-premise installation</text>

  <rect x="700" y="380" width="280" height="90" rx="8" fill="#A8B8FF" stroke="#7B8FFF" stroke-width="2"/>
  <text x="840" y="420" class="box-label" text-anchor="middle">FOREST ADMIN UI</text>
  <text x="840" y="440" class="box-sublabel" text-anchor="middle">On-premise installation</text>

  <rect x="600" y="650" width="200" height="100" rx="8" fill="#34495E" stroke="#7C8DB5" stroke-width="2"/>
  <text x="700" y="705" class="box-label" text-anchor="middle">BROWSER</text>

  <path d="M 350 330 L 350 400" class="arrow" marker-end="url(#arrowhead-onprem)"/>
  <path d="M 470 450 L 700 300" class="arrow" marker-end="url(#arrowhead-onprem)"/>
  <path d="M 840 340 L 840 380" class="arrow" marker-end="url(#arrowhead-onprem)"/>
  <path d="M 840 470 Q 840 580 700 650" class="arrow" marker-end="url(#arrowhead-onprem)"/>
</svg>
